<?xml version="1.0" encoding="UTF-8" standalone="no"?>
<!-- Created with Inkscape (http://www.inkscape.org/) -->

<svg
   xmlns:dc="http://purl.org/dc/elements/1.1/"
   xmlns:cc="http://creativecommons.org/ns#"
   xmlns:rdf="http://www.w3.org/1999/02/22-rdf-syntax-ns#"
   xmlns:svg="http://www.w3.org/2000/svg"
   xmlns="http://www.w3.org/2000/svg"
   xmlns:sodipodi="http://sodipodi.sourceforge.net/DTD/sodipodi-0.dtd"
   xmlns:inkscape="http://www.inkscape.org/namespaces/inkscape"
   width="2256mm"
   height="1504mm"
   viewBox="0 0 2256 1504"
   version="1.1"
   id="svg8"
   inkscape:version="0.92.5 (2060ec1f9f, 2020-04-08)"
   sodipodi:docname="ServicesBackground.svg"
   inkscape:export-filename="C:\Users\亦辰\Desktop\projectZ\ServicesBackground.png"
   inkscape:export-xdpi="96"
   inkscape:export-ydpi="96">
  <defs
     id="defs2" />
  <sodipodi:namedview
     id="base"
     pagecolor="#ffffff"
     bordercolor="#666666"
     borderopacity="1.0"
     inkscape:pageopacity="0.0"
     inkscape:pageshadow="2"
     inkscape:zoom="0.12374369"
     inkscape:cx="3194.851"
     inkscape:cy="2239.1878"
     inkscape:document-units="mm"
     inkscape:current-layer="layer1"
     showgrid="false"
     inkscape:window-width="2256"
     inkscape:window-height="1398"
     inkscape:window-x="-11"
     inkscape:window-y="-11"
     inkscape:window-maximized="1" />
  <metadata
     id="metadata5">
    <rdf:RDF>
      <cc:Work
         rdf:about="">
        <dc:format>image/svg+xml</dc:format>
        <dc:type
           rdf:resource="http://purl.org/dc/dcmitype/StillImage" />
        <dc:title></dc:title>
      </cc:Work>
    </rdf:RDF>
  </metadata>
  <g
     inkscape:label="Layer 1"
     inkscape:groupmode="layer"
     id="layer1"
     transform="translate(0,1207)">
    <path
       sodipodi:type="star"
       style="opacity:0.98999999;fill:#b9fbc0;fill-opacity:0.70329672;stroke:none;stroke-width:32;stroke-linecap:round;stroke-linejoin:round;stroke-miterlimit:4;stroke-dasharray:none;stroke-opacity:1"
       id="path819"
       sodipodi:sides="4"
       sodipodi:cx="104.76965"
       sodipodi:cy="-1054.3147"
       sodipodi:r1="318.66422"
       sodipodi:r2="225.32961"
       sodipodi:arg1="0.78539816"
       sodipodi:arg2="1.5707963"
       inkscape:flatsided="true"
       inkscape:rounded="0"
       inkscape:randomized="0"
       d="m 330.09928,-828.98507 -450.65925,0 0,-450.65923 450.65925,0 z"
       inkscape:transform-center-x="9.8250279e-06"
       inkscape:transform-center-y="-0.00010939121"
       transform="matrix(6.1193236,0,0,3.8846606,373.4357,3620.7801)" />
    <g
       id="g892"
       transform="matrix(1.8180875,0,0,1.8180875,1311.3774,-1192.4711)"
       style="fill:#ffffff;fill-opacity:1">
      <g
         style="fill:#ffffff;fill-opacity:1"
         id="g12">
	<g
   style="fill:#ffffff;fill-opacity:1"
   id="g10">
		<g
   style="fill:#ffffff;fill-opacity:1"
   id="g8">
			<path
   style="fill:#ffffff;fill-opacity:1"
   id="path2"
   d="m 320.951,218.925 c -23.167,-10.994 -47.95,-16.568 -73.662,-16.568 -5.523,0 -10,4.478 -10,10 0,5.522 4.478,9.999 10.001,9.999 22.723,0 44.621,4.925 65.087,14.637 1.384,0.657 2.843,0.968 4.28,0.968 3.742,0 7.33,-2.109 9.041,-5.715 2.368,-4.989 0.243,-10.953 -4.747,-13.321 z"
   inkscape:connector-curvature="0" />

			<path
   style="fill:#ffffff;fill-opacity:1"
   id="path4"
   d="m 185.015,214.081 c -55.646,21.825 -96.279,71.938 -106.041,130.78 -0.904,5.449 2.78,10.598 8.229,11.502 0.555,0.092 1.105,0.137 1.649,0.137 4.803,0 9.041,-3.472 9.853,-8.365 8.615,-51.935 44.486,-96.167 93.613,-115.435 5.142,-2.017 7.675,-7.819 5.658,-12.961 -2.017,-5.142 -7.82,-7.673 -12.961,-5.658 z"
   inkscape:connector-curvature="0" />

			<path
   style="fill:#ffffff;fill-opacity:1"
   id="path6"
   d="m 502,376.872 h -18.858 c -2.019,-57.41 -25.63,-111.176 -67.033,-152.15 -31.025,-30.704 -69.246,-51.499 -110.762,-60.783 -0.297,-26.964 -22.313,-48.811 -49.346,-48.811 -26.925,0 -48.869,21.672 -49.338,48.487 -41.975,9.116 -80.529,30.045 -111.628,61.144 C 54.158,265.636 30.847,319.39 28.856,376.872 H 10 c -5.523,0 -10,4.478 -10,10 0,5.522 4.477,10 10,10 h 492 c 5.523,0 10,-4.478 10,-10 0,-5.522 -4.477,-10 -10,-10 z M 256,135.128 c 14.792,0 27.057,10.997 29.065,25.244 -9.836,-1.282 -19.812,-1.948 -29.886,-1.948 -9.509,0 -18.928,0.584 -28.218,1.731 2.102,-14.142 14.322,-25.027 29.039,-25.027 z M 48.871,376.872 c 4.236,-110.144 95.146,-198.448 206.309,-198.448 112.045,0 203.678,88.304 207.948,198.448 z"
   inkscape:connector-curvature="0" />

		</g>

	</g>

</g>
      <g
         id="g14"
         style="fill:#ffffff;fill-opacity:1">
</g>
      <g
         id="g16"
         style="fill:#ffffff;fill-opacity:1">
</g>
      <g
         id="g18"
         style="fill:#ffffff;fill-opacity:1">
</g>
      <g
         id="g20"
         style="fill:#ffffff;fill-opacity:1">
</g>
      <g
         id="g22"
         style="fill:#ffffff;fill-opacity:1">
</g>
      <g
         id="g24"
         style="fill:#ffffff;fill-opacity:1">
</g>
      <g
         id="g26"
         style="fill:#ffffff;fill-opacity:1">
</g>
      <g
         id="g28"
         style="fill:#ffffff;fill-opacity:1">
</g>
      <g
         id="g30"
         style="fill:#ffffff;fill-opacity:1">
</g>
      <g
         id="g32"
         style="fill:#ffffff;fill-opacity:1">
</g>
      <g
         id="g34"
         style="fill:#ffffff;fill-opacity:1">
</g>
      <g
         id="g36"
         style="fill:#ffffff;fill-opacity:1">
</g>
      <g
         id="g38"
         style="fill:#ffffff;fill-opacity:1">
</g>
      <g
         id="g40"
         style="fill:#ffffff;fill-opacity:1">
</g>
      <g
         id="g42"
         style="fill:#ffffff;fill-opacity:1">
</g>
    </g>
    <g
       id="g1013"
       transform="matrix(1.3294854,0,0,1.3294854,43.450795,-1067.3883)"
       style="fill:#ffffff;fill-opacity:1">
      <g
         id="g947"
         style="fill:#ffffff;fill-opacity:1">
	<g
   id="g945"
   style="fill:#ffffff;fill-opacity:1">
		<path
   id="path943"
   d="M 451.866,63.373 H 60.134 C 26.976,63.373 0,90.344 0,123.494 v 188.574 71.558 51.669 c 0,7.362 5.968,13.331 13.331,13.331 7.363,0 13.331,-5.968 13.331,-13.331 V 396.956 H 485.34 v 38.339 c 0,7.362 5.968,13.331 13.331,13.331 7.363,0 13.329,-5.968 13.329,-13.33 V 383.627 312.069 123.494 C 512,90.344 485.024,63.373 451.866,63.373 Z M 26.661,123.494 c 0,-18.449 15.016,-33.46 33.473,-33.46 h 391.732 c 18.458,0 33.473,15.01 33.473,33.46 v 98.437 C 470.793,208.639 451.443,200.518 430.23,200.518 h -8.465 v -28.607 c 0,-19.846 -16.146,-35.992 -35.993,-35.992 h -107.11 c -8.582,0 -16.47,3.025 -22.662,8.057 -6.192,-5.032 -14.08,-8.057 -22.662,-8.057 H 126.227 c -19.847,0 -35.992,16.146 -35.992,35.992 v 28.607 H 81.77 c -21.213,0 -40.561,8.122 -55.109,21.413 z m 368.443,48.417 v 28.607 H 269.331 v -28.607 c 0,-5.146 4.186,-9.331 9.331,-9.331 h 107.111 c 5.146,-0.001 9.331,4.185 9.331,9.331 z m -152.435,0 v 28.607 H 116.896 v -28.607 c 0,-5.146 4.186,-9.331 9.331,-9.331 h 107.111 c 5.146,-0.001 9.331,4.185 9.331,9.331 z m 242.67,126.827 H 145.356 c -7.362,0 -13.331,5.968 -13.331,13.331 0,7.362 5.968,13.331 13.331,13.331 h 339.982 v 44.897 H 26.661 V 325.4 h 25.827 c 7.362,0 13.331,-5.968 13.331,-13.331 0,-7.362 -5.968,-13.331 -13.331,-13.331 H 26.661 v -16.463 c 0,-30.38 24.721,-55.095 55.109,-55.095 H 103.565 256 408.435 430.23 c 30.387,0 55.109,24.716 55.109,55.095 z"
   inkscape:connector-curvature="0"
   style="fill:#ffffff;fill-opacity:1" />

	</g>

</g>
      <g
         id="g953"
         style="fill:#ffffff;fill-opacity:1">
	<g
   id="g951"
   style="fill:#ffffff;fill-opacity:1">
		<path
   id="path949"
   d="m 101.366,298.738 h -7.553 c -7.362,0 -13.331,5.968 -13.331,13.331 0,7.362 5.968,13.331 13.331,13.331 h 7.553 c 7.362,0 13.331,-5.968 13.331,-13.331 -0.001,-7.363 -5.969,-13.331 -13.331,-13.331 z"
   inkscape:connector-curvature="0"
   style="fill:#ffffff;fill-opacity:1" />

	</g>

</g>
      <g
         id="g955"
         style="fill:#ffffff;fill-opacity:1">
</g>
      <g
         id="g957"
         style="fill:#ffffff;fill-opacity:1">
</g>
      <g
         id="g959"
         style="fill:#ffffff;fill-opacity:1">
</g>
      <g
         id="g961"
         style="fill:#ffffff;fill-opacity:1">
</g>
      <g
         id="g963"
         style="fill:#ffffff;fill-opacity:1">
</g>
      <g
         id="g965"
         style="fill:#ffffff;fill-opacity:1">
</g>
      <g
         id="g967"
         style="fill:#ffffff;fill-opacity:1">
</g>
      <g
         id="g969"
         style="fill:#ffffff;fill-opacity:1">
</g>
      <g
         id="g971"
         style="fill:#ffffff;fill-opacity:1">
</g>
      <g
         id="g973"
         style="fill:#ffffff;fill-opacity:1">
</g>
      <g
         id="g975"
         style="fill:#ffffff;fill-opacity:1">
</g>
      <g
         id="g977"
         style="fill:#ffffff;fill-opacity:1">
</g>
      <g
         id="g979"
         style="fill:#ffffff;fill-opacity:1">
</g>
      <g
         id="g981"
         style="fill:#ffffff;fill-opacity:1">
</g>
      <g
         id="g983"
         style="fill:#ffffff;fill-opacity:1">
</g>
    </g>
  </g>
</svg>
