<?xml version="1.0" encoding="iso-8859-1"?>
<!-- Generator: Adobe Illustrator 16.0.0, SVG Export Plug-In . SVG Version: 6.00 Build 0)  -->
<!DOCTYPE svg PUBLIC "-//W3C//DTD SVG 1.1//EN" "http://www.w3.org/Graphics/SVG/1.1/DTD/svg11.dtd">
<svg version="1.1" id="Capa_1" xmlns="http://www.w3.org/2000/svg" xmlns:xlink="http://www.w3.org/1999/xlink" x="0px" y="0px"
	 width="46.888px" height="46.889px" viewBox="0 0 46.888 46.889" style="enable-background:new 0 0 46.888 46.889;"
	 xml:space="preserve">
<g>
	<g>
		<path d="M43.523,2.788c-4.194-3.91-10.765-3.679-14.675,0.517c-1.004,1.077-1.729,2.311-2.19,3.616L2.727,9.607
			c-1.646,0.185-2.831,1.67-2.646,3.316c0.172,1.533,1.471,2.666,2.978,2.666c0.112,0,0.225-0.006,0.339-0.019l23.004-2.583
			c0.239,0.925,0.604,1.823,1.101,2.664L11.686,32.619c-1.13,1.212-1.063,3.109,0.148,4.24c0.578,0.538,1.313,0.806,2.045,0.806
			c0.804,0,1.604-0.321,2.195-0.955l15.832-16.985c0.863,0.42,1.773,0.707,2.7,0.873l-0.961,23.167
			c-0.068,1.656,1.219,3.054,2.873,3.122c0.042,0.001,0.084,0.002,0.126,0.002c1.601,0,2.93-1.263,2.995-2.875l1.001-24.13
			c1.248-0.551,2.408-1.356,3.396-2.418C47.951,13.268,47.717,6.698,43.523,2.788z"/>
		<path d="M15.45,20.048c-0.552-1.267-2.027-1.847-3.29-1.295l-8.55,3.719c-1.267,0.551-1.846,2.023-1.296,3.29
			c0.41,0.941,1.329,1.503,2.294,1.503c0.333,0,0.672-0.066,0.996-0.208l8.55-3.719C15.421,22.788,16,21.314,15.45,20.048z"/>
		<path d="M28.332,32.055c-1.303-0.462-2.729,0.223-3.19,1.523l-3.108,8.791c-0.46,1.302,0.223,2.729,1.524,3.189
			c0.275,0.099,0.558,0.145,0.833,0.145c1.029,0,1.994-0.642,2.357-1.667l3.107-8.791C30.315,33.944,29.633,32.516,28.332,32.055z"
			/>
	</g>
</g>
<g>
</g>
<g>
</g>
<g>
</g>
<g>
</g>
<g>
</g>
<g>
</g>
<g>
</g>
<g>
</g>
<g>
</g>
<g>
</g>
<g>
</g>
<g>
</g>
<g>
</g>
<g>
</g>
<g>
</g>
</svg>
