<?xml version="1.0" encoding="UTF-8" standalone="no"?>
<!-- Created with Inkscape (http://www.inkscape.org/) -->

<svg
   xmlns:dc="http://purl.org/dc/elements/1.1/"
   xmlns:cc="http://creativecommons.org/ns#"
   xmlns:rdf="http://www.w3.org/1999/02/22-rdf-syntax-ns#"
   xmlns:svg="http://www.w3.org/2000/svg"
   xmlns="http://www.w3.org/2000/svg"
   xmlns:sodipodi="http://sodipodi.sourceforge.net/DTD/sodipodi-0.dtd"
   xmlns:inkscape="http://www.inkscape.org/namespaces/inkscape"
   width="2256mm"
   height="1504mm"
   viewBox="0 0 2256 1504"
   version="1.1"
   id="svg8"
   inkscape:version="0.92.5 (2060ec1f9f, 2020-04-08)"
   sodipodi:docname="star - 副本.svg"
   inkscape:export-filename="C:\Users\亦辰\Desktop\projectZ\FeaturesBackground.png"
   inkscape:export-xdpi="96"
   inkscape:export-ydpi="96">
  <defs
     id="defs2">
	
</defs>
  <sodipodi:namedview
     id="base"
     pagecolor="#ffffff"
     bordercolor="#666666"
     borderopacity="1.0"
     inkscape:pageopacity="1"
     inkscape:pageshadow="2"
     inkscape:zoom="0.12374369"
     inkscape:cx="3595.1732"
     inkscape:cy="1606.4242"
     inkscape:document-units="mm"
     inkscape:current-layer="layer2"
     showgrid="false"
     inkscape:window-width="2256"
     inkscape:window-height="1398"
     inkscape:window-x="-11"
     inkscape:window-y="-11"
     inkscape:window-maximized="1"
     width="2256mm" />
  <metadata
     id="metadata5">
    <rdf:RDF>
      <cc:Work
         rdf:about="">
        <dc:format>image/svg+xml</dc:format>
        <dc:type
           rdf:resource="http://purl.org/dc/dcmitype/StillImage" />
        <dc:title />
      </cc:Work>
    </rdf:RDF>
  </metadata>
  <g
     inkscape:groupmode="layer"
     id="layer2"
     inkscape:label="Layer 2"
     style="display:inline">
    <path
       sodipodi:type="star"
       style="opacity:0.98999999;fill:#cfbaf0;fill-opacity:0.47985348;stroke:#ffffff;stroke-width:2;stroke-linecap:round;stroke-linejoin:round;stroke-miterlimit:4;stroke-dasharray:none;stroke-opacity:1"
       id="path821"
       sodipodi:sides="4"
       sodipodi:cx="857.25"
       sodipodi:cy="908.30951"
       sodipodi:r1="1480.0073"
       sodipodi:r2="1046.5232"
       sodipodi:arg1="0.78539816"
       sodipodi:arg2="1.5707963"
       inkscape:flatsided="true"
       inkscape:rounded="0"
       inkscape:randomized="0"
       d="m 1903.7732,1954.8327 -2093.04641,0 -1e-5,-2093.0464 2093.04642,-1e-5 z"
       inkscape:transform-center-x="2.104756e-05"
       transform="matrix(1.2308572,0,0,1,43.69509,0)" />
  </g>
  <g
     inkscape:label="Layer 1"
     inkscape:groupmode="layer"
     id="layer1"
     transform="translate(0,1207)"
     style="display:inline">
    <path
       sodipodi:type="star"
       style="opacity:0.98999999;fill:none;fill-opacity:0.99215686;stroke:#ffffff;stroke-width:1.71143198;stroke-linecap:butt;stroke-linejoin:round;stroke-miterlimit:4;stroke-dasharray:none;stroke-opacity:1"
       id="path827"
       sodipodi:sides="5"
       sodipodi:cx="18.976137"
       sodipodi:cy="58.194679"
       sodipodi:r1="15.904782"
       sodipodi:r2="7.9523911"
       sodipodi:arg1="0.91049008"
       sodipodi:arg2="1.5388086"
       inkscape:flatsided="false"
       inkscape:rounded="0"
       inkscape:randomized="0"
       d="m 28.731475,70.756347 -9.501002,-4.613345 -9.186627,5.211323 1.451581,-10.461591 -7.7950865,-7.126614 10.3981275,-1.852274 4.368998,-9.615813 4.974816,9.316823 10.495276,1.183715 -7.323522,7.610388 z"
       inkscape:transform-center-x="-0.0030770395"
       inkscape:transform-center-y="-13.491153"
       transform="matrix(16.352162,0.52438884,-0.52438884,16.352162,1405.902,-1762.1849)"
       inkscape:export-xdpi="236.85762"
       inkscape:export-ydpi="236.85762" />
    <path
       style="fill:none;stroke:#ffffff;stroke-width:28;stroke-linecap:round;stroke-linejoin:miter;stroke-miterlimit:4;stroke-dasharray:none;stroke-opacity:1"
       d="M 2079.3323,-1186.0957 1739.954,-988.49895"
       id="path829"
       inkscape:connector-curvature="0"
       inkscape:export-xdpi="236.85762"
       inkscape:export-ydpi="236.85762" />
    <path
       inkscape:connector-curvature="0"
       id="path831"
       d="m 2158.8704,-897.97254 -335.312,195.22935"
       style="fill:none;stroke:#ffffff;stroke-width:28;stroke-linecap:round;stroke-linejoin:miter;stroke-miterlimit:4;stroke-dasharray:none;stroke-opacity:1"
       inkscape:export-xdpi="236.85762"
       inkscape:export-ydpi="236.85762" />
    <path
       style="fill:none;stroke:#ffffff;stroke-width:28;stroke-linecap:round;stroke-linejoin:miter;stroke-miterlimit:4;stroke-dasharray:none;stroke-opacity:1"
       d="m 2236.9119,-1103.0136 -353.7612,205.97105"
       id="path833"
       inkscape:connector-curvature="0"
       inkscape:export-xdpi="236.85762"
       inkscape:export-ydpi="236.85762" />
    <g
       id="g876"
       style="fill:none;fill-opacity:1;stroke:#ffffff;stroke-width:2.11110505;stroke-miterlimit:4;stroke-dasharray:none;stroke-opacity:1"
       transform="matrix(-13.263196,0,0,-13.263196,645.60099,274.58702)">
		<path
   id="path870"
   d="M 43.523,2.788 C 39.329,-1.122 32.758,-0.891 28.848,3.305 27.844,4.382 27.119,5.616 26.658,6.921 L 2.727,9.607 c -1.646,0.185 -2.831,1.67 -2.646,3.316 0.172,1.533 1.471,2.666 2.978,2.666 0.112,0 0.225,-0.006 0.339,-0.019 l 23.004,-2.583 c 0.239,0.925 0.604,1.823 1.101,2.664 L 11.686,32.619 c -1.13,1.212 -1.063,3.109 0.148,4.24 0.578,0.538 1.313,0.806 2.045,0.806 0.804,0 1.604,-0.321 2.195,-0.955 L 31.906,19.725 c 0.863,0.42 1.773,0.707 2.7,0.873 l -0.961,23.167 c -0.068,1.656 1.219,3.054 2.873,3.122 0.042,10e-4 0.084,0.002 0.126,0.002 1.601,0 2.93,-1.263 2.995,-2.875 l 1.001,-24.13 c 1.248,-0.551 2.408,-1.356 3.396,-2.418 3.915,-4.198 3.681,-10.768 -0.513,-14.678 z"
   inkscape:connector-curvature="0"
   style="fill:none;fill-opacity:1;stroke:#ffffff;stroke-width:2.11110505;stroke-miterlimit:4;stroke-dasharray:none;stroke-opacity:1" />

		<path
   id="path872"
   d="m 15.45,20.048 c -0.552,-1.267 -2.027,-1.847 -3.29,-1.295 l -8.55,3.719 c -1.267,0.551 -1.846,2.023 -1.296,3.29 0.41,0.941 1.329,1.503 2.294,1.503 0.333,0 0.672,-0.066 0.996,-0.208 l 8.55,-3.719 c 1.267,-0.55 1.846,-2.024 1.296,-3.29 z"
   inkscape:connector-curvature="0"
   style="fill:none;fill-opacity:1;stroke:#ffffff;stroke-width:2.11110505;stroke-miterlimit:4;stroke-dasharray:none;stroke-opacity:1" />

		<path
   id="path874"
   d="m 28.332,32.055 c -1.303,-0.462 -2.729,0.223 -3.19,1.523 l -3.108,8.791 c -0.46,1.302 0.223,2.729 1.524,3.189 0.275,0.099 0.558,0.145 0.833,0.145 1.029,0 1.994,-0.642 2.357,-1.667 l 3.107,-8.791 c 0.46,-1.301 -0.222,-2.729 -1.523,-3.19 z"
   inkscape:connector-curvature="0"
   style="fill:none;fill-opacity:1;stroke:#ffffff;stroke-width:2.11110505;stroke-miterlimit:4;stroke-dasharray:none;stroke-opacity:1" />

	</g>
    <g
       style="fill:#ffffff;fill-opacity:1;stroke:none;stroke-opacity:1"
       id="g880"
       transform="matrix(-11.356702,0,0,-11.356702,1370.7664,304.71808)">
</g>
    <g
       style="fill:#ffffff;fill-opacity:1;stroke:none;stroke-opacity:1"
       id="g882"
       transform="matrix(-11.356702,0,0,-11.356702,1370.7664,304.71808)">
</g>
    <g
       style="fill:#ffffff;fill-opacity:1;stroke:none;stroke-opacity:1"
       id="g884"
       transform="matrix(-11.356702,0,0,-11.356702,1370.7664,304.71808)">
</g>
    <g
       style="fill:#ffffff;fill-opacity:1;stroke:none;stroke-opacity:1"
       id="g886"
       transform="matrix(-11.356702,0,0,-11.356702,1370.7664,304.71808)">
</g>
    <g
       style="fill:#ffffff;fill-opacity:1;stroke:none;stroke-opacity:1"
       id="g888"
       transform="matrix(-11.356702,0,0,-11.356702,1370.7664,304.71808)">
</g>
    <g
       style="fill:#ffffff;fill-opacity:1;stroke:none;stroke-opacity:1"
       id="g890"
       transform="matrix(-11.356702,0,0,-11.356702,1370.7664,304.71808)">
</g>
    <g
       style="fill:#ffffff;fill-opacity:1;stroke:none;stroke-opacity:1"
       id="g892"
       transform="matrix(-11.356702,0,0,-11.356702,1370.7664,304.71808)">
</g>
    <g
       style="fill:#ffffff;fill-opacity:1;stroke:none;stroke-opacity:1"
       id="g894"
       transform="matrix(-11.356702,0,0,-11.356702,1370.7664,304.71808)">
</g>
    <g
       style="fill:#ffffff;fill-opacity:1;stroke:none;stroke-opacity:1"
       id="g896"
       transform="matrix(-11.356702,0,0,-11.356702,1370.7664,304.71808)">
</g>
    <g
       style="fill:#ffffff;fill-opacity:1;stroke:none;stroke-opacity:1"
       id="g898"
       transform="matrix(-11.356702,0,0,-11.356702,1370.7664,304.71808)">
</g>
    <g
       style="fill:#ffffff;fill-opacity:1;stroke:none;stroke-opacity:1"
       id="g900"
       transform="matrix(-11.356702,0,0,-11.356702,1370.7664,304.71808)">
</g>
    <g
       style="fill:#ffffff;fill-opacity:1;stroke:none;stroke-opacity:1"
       id="g902"
       transform="matrix(-11.356702,0,0,-11.356702,1370.7664,304.71808)">
</g>
    <g
       style="fill:#ffffff;fill-opacity:1;stroke:none;stroke-opacity:1"
       id="g904"
       transform="matrix(-11.356702,0,0,-11.356702,1370.7664,304.71808)">
</g>
    <g
       style="fill:#ffffff;fill-opacity:1;stroke:none;stroke-opacity:1"
       id="g906"
       transform="matrix(-11.356702,0,0,-11.356702,1370.7664,304.71808)">
</g>
    <g
       style="fill:#ffffff;fill-opacity:1;stroke:none;stroke-opacity:1"
       id="g908"
       transform="matrix(-11.356702,0,0,-11.356702,1370.7664,304.71808)">
</g>
  </g>
</svg>
