<?xml version="1.0" encoding="UTF-8" standalone="no"?>
<!-- Created with Inkscape (http://www.inkscape.org/) -->

<svg
   xmlns:dc="http://purl.org/dc/elements/1.1/"
   xmlns:cc="http://creativecommons.org/ns#"
   xmlns:rdf="http://www.w3.org/1999/02/22-rdf-syntax-ns#"
   xmlns:svg="http://www.w3.org/2000/svg"
   xmlns="http://www.w3.org/2000/svg"
   xmlns:sodipodi="http://sodipodi.sourceforge.net/DTD/sodipodi-0.dtd"
   xmlns:inkscape="http://www.inkscape.org/namespaces/inkscape"
   width="2256mm"
   height="1504mm"
   viewBox="0 0 2256 1504"
   version="1.1"
   id="svg8"
   inkscape:version="0.92.5 (2060ec1f9f, 2020-04-08)"
   sodipodi:docname="VisitorsBackground.svg"
   inkscape:export-filename="C:\Users\亦辰\Desktop\projectZ\VisitorsBackground.png"
   inkscape:export-xdpi="96"
   inkscape:export-ydpi="96">
  <defs
     id="defs2" />
  <sodipodi:namedview
     id="base"
     pagecolor="#ffffff"
     bordercolor="#666666"
     borderopacity="1.0"
     inkscape:pageopacity="0.0"
     inkscape:pageshadow="2"
     inkscape:zoom="0.12374369"
     inkscape:cx="2950.2536"
     inkscape:cy="-229.58571"
     inkscape:document-units="mm"
     inkscape:current-layer="layer2"
     showgrid="false"
     inkscape:window-width="2256"
     inkscape:window-height="1398"
     inkscape:window-x="-11"
     inkscape:window-y="-11"
     inkscape:window-maximized="1" />
  <metadata
     id="metadata5">
    <rdf:RDF>
      <cc:Work
         rdf:about="">
        <dc:format>image/svg+xml</dc:format>
        <dc:type
           rdf:resource="http://purl.org/dc/dcmitype/StillImage" />
        <dc:title></dc:title>
      </cc:Work>
    </rdf:RDF>
  </metadata>
  <g
     inkscape:label="Layer 1"
     inkscape:groupmode="layer"
     id="layer1"
     transform="translate(0,1207)">
    <path
       sodipodi:type="star"
       style="opacity:1;fill:#a4c5ff;fill-opacity:0.6813187;stroke:none;stroke-width:32;stroke-linecap:round;stroke-linejoin:round;stroke-miterlimit:4;stroke-dasharray:none;stroke-opacity:1"
       id="path1384"
       sodipodi:sides="4"
       sodipodi:cx="346.38132"
       sodipodi:cy="-695.10443"
       sodipodi:r1="878.52203"
       sodipodi:r2="621.20892"
       sodipodi:arg1="0.78539816"
       sodipodi:arg2="1.5707963"
       inkscape:flatsided="true"
       inkscape:rounded="0"
       inkscape:randomized="0"
       d="m 967.59021,-73.895546 -1242.41778,4e-6 0,-1242.417758 1242.41777,0 z"
       inkscape:transform-center-x="-5.5036627e-06"
       inkscape:transform-center-y="-1.0964389e-05"
       transform="matrix(2.1685345,0,0,1.3786121,321.14551,498.37209)" />
    <g
       id="g1524"
       transform="matrix(1.0872723,0,0,1.0872723,26.345801,-644.17791)"
       style="fill:#ffffff;fill-opacity:1">
      <g
         id="g1462"
         style="fill:#ffffff;fill-opacity:1">
	<g
   id="g1460"
   style="fill:#ffffff;fill-opacity:1">
		<g
   id="g1458"
   style="fill:#ffffff;fill-opacity:1">
			<path
   id="path1448"
   d="m 456.326,119.157 c -1.247,-6.573 -7.575,-10.898 -14.16,-9.646 -6.574,1.247 -10.892,7.587 -9.646,14.16 2.661,14.031 -0.053,28.341 -7.644,40.298 -3.585,5.649 -1.912,13.135 3.738,16.722 2.012,1.278 4.26,1.889 6.481,1.889 4.01,-0.001 7.933,-1.991 10.241,-5.626 10.898,-17.171 14.801,-37.698 10.99,-57.797 z"
   inkscape:connector-curvature="0"
   style="fill:#ffffff;fill-opacity:1" />

			<path
   id="path1450"
   d="m 434.992,95.706 c 4.811,-4.65 4.941,-12.32 0.291,-17.131 -0.308,-0.319 -0.619,-0.634 -0.933,-0.949 -4.736,-4.724 -12.407,-4.719 -17.135,0.019 -4.725,4.737 -4.718,12.407 0.019,17.133 0.212,0.21 0.419,0.422 0.625,0.635 2.377,2.459 5.543,3.695 8.712,3.695 3.033,0.003 6.069,-1.128 8.421,-3.402 z"
   inkscape:connector-curvature="0"
   style="fill:#ffffff;fill-opacity:1" />

			<path
   id="path1452"
   d="m 163.449,347.559 c -21.676,17.738 -39.68,32.563 -56.665,46.655 -5.149,4.273 -5.86,11.911 -1.587,17.061 2.396,2.887 5.849,4.38 9.33,4.38 2.725,0 5.468,-0.916 7.73,-2.793 16.941,-14.057 34.907,-28.849 56.536,-46.551 5.178,-4.238 5.94,-11.871 1.703,-17.049 -4.236,-5.179 -11.867,-5.941 -17.047,-1.703 z"
   inkscape:connector-curvature="0"
   style="fill:#ffffff;fill-opacity:1" />

			<path
   id="path1454"
   d="m 191.902,324.314 c -5.184,4.229 -5.96,11.862 -1.73,17.046 2.395,2.937 5.881,4.458 9.396,4.458 2.692,0 5.402,-0.893 7.651,-2.727 l 4.328,-3.53 c 5.187,-4.227 5.963,-11.86 1.736,-17.045 -4.227,-5.185 -11.861,-5.963 -17.045,-1.737 z"
   inkscape:connector-curvature="0"
   style="fill:#ffffff;fill-opacity:1" />

			<path
   id="path1456"
   d="m 460.432,239.843 c 4.288,-3.347 8.39,-6.968 12.276,-10.854 C 498.045,203.651 512,169.967 512,134.139 512,98.311 498.046,64.627 472.709,39.289 447.375,13.955 413.691,0.003 377.862,0 c -0.001,0 -0.002,0 -0.002,0 -35.831,0 -69.517,13.953 -94.851,39.288 -3.887,3.888 -7.501,7.995 -10.848,12.283 l -9.05,-9.05 c -4.732,-4.731 -12.401,-4.731 -17.135,0 -4.731,4.731 -4.731,12.402 0,17.135 l 12.796,12.795 C 248.528,92.24 243.276,114.453 243.776,137.082 226.872,157.369 71.417,347.709 32.011,394.523 15.122,414.586 15.381,443.2 32.028,462.838 l -28.48,28.479 c -4.731,4.731 -4.731,12.403 0,17.134 2.366,2.366 5.465,3.549 8.567,3.549 3.102,0 6.201,-1.182 8.568,-3.549 l 28.482,-28.482 c 9.859,8.36 21.975,12.6 34.144,12.6 12.071,0 24.187,-4.16 34.177,-12.571 46.872,-39.455 237.426,-195.099 257.443,-211.774 0.978,0.022 1.955,0.042 2.931,0.042 21.613,0 42.759,-5.242 61.688,-15.039 l 12.797,12.797 c 2.366,2.366 5.466,3.549 8.567,3.549 3.101,0 6.201,-1.182 8.567,-3.549 4.731,-4.731 4.731,-12.402 0,-17.135 z M 101.881,461.46 c -11.522,9.701 -28.242,8.988 -38.889,-1.649 l -5.366,-5.366 c -0.012,-0.012 -0.022,-0.025 -0.034,-0.037 -0.012,-0.012 -0.025,-0.022 -0.037,-0.034 l -5.366,-5.366 c -10.635,-10.645 -11.34,-27.36 -1.64,-38.881 39.53,-46.96 137.017,-166.569 146.968,-178.752 l 83.116,83.117 C 268.509,324.394 148.901,421.88 101.881,461.46 Z M 342.603,263.576 c -13.128,10.87 -27.275,22.518 -43.12,35.499 l -86.55,-86.551 c 12.897,-15.747 24.541,-29.895 35.494,-43.121 l -0.001,-0.023 c 6.081,22.378 17.919,42.944 34.583,59.609 16.666,16.666 37.232,28.503 59.605,34.583 z m 28.828,-19.73 c -26.888,-1.547 -52.206,-12.909 -71.289,-31.992 -19.083,-19.082 -30.445,-44.399 -31.993,-71.301 -1.012,-17.277 2.095,-34.356 8.803,-49.923 l 144.416,144.416 c -15.566,6.709 -32.646,9.816 -49.937,8.8 z M 443.137,222.548 289.45,68.862 c 3.231,-4.378 6.795,-8.543 10.693,-12.439 20.76,-20.76 48.361,-32.192 77.719,-32.19 29.356,0.001 56.956,11.434 77.713,32.192 42.853,42.853 42.853,112.578 0,155.432 -3.896,3.895 -8.059,7.459 -12.438,10.691 z"
   inkscape:connector-curvature="0"
   style="fill:#ffffff;fill-opacity:1" />

		</g>

	</g>

</g>
      <g
         id="g1464"
         style="fill:#ffffff;fill-opacity:1">
</g>
      <g
         id="g1466"
         style="fill:#ffffff;fill-opacity:1">
</g>
      <g
         id="g1468"
         style="fill:#ffffff;fill-opacity:1">
</g>
      <g
         id="g1470"
         style="fill:#ffffff;fill-opacity:1">
</g>
      <g
         id="g1472"
         style="fill:#ffffff;fill-opacity:1">
</g>
      <g
         id="g1474"
         style="fill:#ffffff;fill-opacity:1">
</g>
      <g
         id="g1476"
         style="fill:#ffffff;fill-opacity:1">
</g>
      <g
         id="g1478"
         style="fill:#ffffff;fill-opacity:1">
</g>
      <g
         id="g1480"
         style="fill:#ffffff;fill-opacity:1">
</g>
      <g
         id="g1482"
         style="fill:#ffffff;fill-opacity:1">
</g>
      <g
         id="g1484"
         style="fill:#ffffff;fill-opacity:1">
</g>
      <g
         id="g1486"
         style="fill:#ffffff;fill-opacity:1">
</g>
      <g
         id="g1488"
         style="fill:#ffffff;fill-opacity:1">
</g>
      <g
         id="g1490"
         style="fill:#ffffff;fill-opacity:1">
</g>
      <g
         id="g1492"
         style="fill:#ffffff;fill-opacity:1">
</g>
    </g>
  </g>
  <g
     inkscape:groupmode="layer"
     id="layer2"
     inkscape:label="Layer 2">
    <g
       style="color:#000000;fill:none;fill-opacity:1;stroke:#ffffff;stroke-width:1;stroke-linecap:square;stroke-linejoin:miter;stroke-opacity:1"
       id="g1382"
       transform="matrix(31.420573,0,0,31.420573,1528.0503,464.11692)">
      <polygon
         inkscape:export-ydpi="96"
         inkscape:export-xdpi="96"
         style="fill:none;fill-opacity:1;stroke:#ffffff;stroke-linejoin:round;stroke-opacity:1"
         id="polygon3"
         points="9,7 18,12 9,16.9 " />
    </g>
    <circle
       inkscape:export-ydpi="96"
       inkscape:export-xdpi="96"
       style="color:#000000;fill:none;fill-opacity:1;stroke:#ffffff;stroke-width:31.42057228;stroke-linecap:square;stroke-linejoin:miter;stroke-miterlimit:4;stroke-dasharray:none;stroke-opacity:1"
       id="circle5"
       r="314.20572"
       cy="841.16382"
       cx="1905.0972" />
  </g>
</svg>
